<?xml version="1.0" encoding="utf-8"?><svg viewBox="0 0 117 29" xmlns="http://www.w3.org/2000/svg" xmlns:xlink="http://www.w3.org/1999/xlink"><style>:root>svg{display:none}:root>svg:target{display:block}</style><svg viewBox="0 0 117 25" id="apple-watch" xmlns="http://www.w3.org/2000/svg"><path d="M15.213 6.52c-2.06-.148-3.806 1.117-4.78 1.117-.99 0-2.514-1.085-4.13-1.057-2.123.032-4.08 1.2-5.174 3.046-2.205 3.717-.562 9.223 1.585 12.237 1.05 1.475 2.303 3.134 3.948 3.074 1.585-.061 2.183-.997 4.098-.997 1.913 0 2.454.997 4.128.965 1.705-.03 2.786-1.502 3.827-2.985 1.207-1.71 1.704-3.364 1.733-3.454-.038-.013-3.324-1.24-3.356-4.914-.03-3.071 2.582-4.549 2.702-4.62-1.484-2.12-3.774-2.354-4.581-2.412Zm82.296 11.997v.326c0 3.207-2.416 6.077-7.265 6.077-4.836 0-7.71-2.948-7.71-8.099v-2.152c0-5.098 2.888-8.138 7.722-8.138 4.54 0 7.253 2.78 7.253 6.248v.182h-3.64c0-1.76-1.155-3.325-3.586-3.325-2.592 0-3.896 1.682-3.896 5.033v2.152c0 3.39 1.291 4.97 3.922 4.97 2.62 0 3.56-1.436 3.56-3.274h3.64Zm-66.2 1.017h.053L34.627 6.82h3.854l3.277 12.715h.054L44.848 6.82h4.056l-5.09 17.802h-3.856l-3.37-12.169h-.068l-3.372 12.169h-3.827L24.217 6.819h4.057l3.035 12.715Zm74.043-5.569h7.494V6.82h3.815v17.8h-3.815v-7.59h-7.494v7.59h-3.8V6.819h3.8v7.146ZM80.076 6.82v3.077H74.61v14.725h-3.788V9.896H65.37V6.82h14.706Zm-20.536 0 5.896 17.801h-4.07l-1.307-4.486H54.26l-1.328 4.486h-3.8l5.91-17.801h4.498Zm-.276 10.577-2.06-7.069h-.04l-2.093 7.069h4.193ZM13.858 4.625c-.88.98-2.265 1.725-3.625 1.623-.193-1.393.518-2.847 1.326-3.756C12.463 1.468 13.985.7 15.244.653c.162 1.42-.428 2.851-1.302 3.875l-.04.049-.043.048Z" clip-rule="evenodd"/></svg><svg viewBox="0 0 32 14" id="arrow-right" xmlns="http://www.w3.org/2000/svg"><path d="M23.429 0c0 3.5 5.714 5.25 5.714 7s-5.714 2.917-5.714 7m5.714-7H1.714"/></svg><svg viewBox="0 0 117 25" id="atlassian" xmlns="http://www.w3.org/2000/svg"><path d="M82.261 16.4c-1.694-.424-1.694-.441-1.694-1.343 0-.608.062-.898 1.458-.898.958 0 2.368.16 3.275.313a.462.462 0 0 0 .353-.088.44.44 0 0 0 .182-.31l.259-2.02a.464.464 0 0 0-.364-.496c-1.057-.235-2.514-.389-3.716-.389-4.208 0-5.064 1.539-5.064 3.85 0 2.541.483 3.397 3.701 4.157 2.12.495 2.12.862 2.12 1.473 0 .8-.072 1.078-1.457 1.078-1.118 0-2.411-.168-3.548-.463a.462.462 0 0 0-.576.354l-.348 1.929a.446.446 0 0 0 .31.506c1.242.39 3.024.655 4.332.655 4.069 0 4.9-1.663 4.9-4.14 0-2.74-.5-3.254-4.128-4.186l.005.018Zm-10.552 0c-1.694-.424-1.694-.441-1.694-1.343 0-.608.062-.898 1.457-.898.957 0 2.368.16 3.276.313a.462.462 0 0 0 .353-.088.44.44 0 0 0 .182-.31l.259-2.02a.452.452 0 0 0-.356-.496c-1.038-.235-2.495-.389-3.697-.389-4.197 0-5.064 1.539-5.064 3.85 0 2.541.492 3.397 3.709 4.157 2.12.495 2.12.862 2.12 1.473 0 .8-.073 1.078-1.457 1.078a14.79 14.79 0 0 1-3.552-.463.462.462 0 0 0-.576.354l-.364 1.919a.451.451 0 0 0 .315.507c1.239.39 3.02.655 4.33.655 4.062 0 4.9-1.663 4.9-4.139 0-2.741-.507-3.254-4.135-4.186l-.006.017v.01ZM34.36 7.11a.458.458 0 0 0-.441-.315h-4.314c-.2 0-.383.126-.443.312l-5.444 16.75a.441.441 0 0 0 .07.397.469.469 0 0 0 .373.183h2.969a.465.465 0 0 0 .444-.318l3.75-12.328s.1-.31.437-.31c.346 0 .437.319.437.319l1.74 5.845h-2.332a.46.46 0 0 0-.437.327l-.674 2.317a.486.486 0 0 0 .073.39.497.497 0 0 0 .383.176h3.98l1.047 3.266a.456.456 0 0 0 .437.313h2.97c.145 0 .287-.07.374-.185a.433.433 0 0 0 .073-.402L34.382 7.08l-.018.028-.005.002Zm56.74 4.328h-2.732c-.255 0-.46.2-.46.448V24.02a.46.46 0 0 0 .462.453h2.732a.456.456 0 0 0 .462-.452v-12.13c0-.248-.2-.445-.455-.445l-.01-.007.002-.001Zm-38.744-4.97h-2.732c-.255 0-.46.2-.46.448V24.02a.46.46 0 0 0 .462.453h2.732a.455.455 0 0 0 .461-.452v-17.1c0-.248-.2-.445-.455-.445l-.008-.007v-.001Zm61.423 4.709c-1.444 0-3.416.485-5.082 1.245l-.201-.654a.452.452 0 0 0-.442-.323h-2.021c-.255 0-.465.2-.465.448v12.134c0 .247.2.45.455.45h2.733c.255 0 .464-.2.464-.45v-8.402c.984-.486 2.368-.99 3.191-.99.615 0 .843.225.843.822v8.56c0 .252.21.452.465.452h2.732c.255 0 .461-.2.461-.451V15.11c0-2.605-1.057-3.927-3.135-3.927h-.002l.004-.006ZM10.506 18.391a.477.477 0 0 0-.356-.146.502.502 0 0 0-.411.226c-1.275 1.893-1.931 3.68-2.022 5.474a.514.514 0 0 0 .141.363.48.48 0 0 0 .364.16h3.028a.492.492 0 0 0 .5-.443c.073-.867.347-1.733.857-2.635a.67.67 0 0 0-.064-.737c-.501-.637-1.114-1.309-2.025-2.234l-.003-.018-.01-.01Zm50.708 1.29v1.563a4.783 4.783 0 0 1-2.258.584c-.847 0-1.111-.247-1.111-1.079 0-.796.163-1.047 1.165-1.047h2.204v-.02Zm38.817 0v1.563a4.845 4.845 0 0 1-2.258.584c-.847 0-1.111-.247-1.111-1.079 0-.796.163-1.047 1.165-1.047h2.204v-.02ZM47.307 21.88a.443.443 0 0 0-.2-.309.467.467 0 0 0-.367-.062c-.491.117-.947.18-1.311.18-.674 0-.984-.282-.984-.92V14.34h2.65a.458.458 0 0 0 .463-.45v-2.01a.46.46 0 0 0-.464-.451h-2.641V8.344a.446.446 0 0 0-.164-.34.469.469 0 0 0-.365-.106l-2.732.371c-.23.03-.4.219-.4.442v2.724H39.3a.456.456 0 0 0-.462.449V13.9a.47.47 0 0 0 .473.453h1.487v6.836c0 2.35 1.27 3.537 3.776 3.537.71 0 1.923-.159 2.714-.424a.448.448 0 0 0 .304-.495l-.296-1.92.01-.013.001.006Zm12.076-10.696c-1.385 0-3.068.212-4.29.54a.451.451 0 0 0-.346.504l.315 1.928a.454.454 0 0 0 .192.294c.102.07.229.088.353.07 1.135-.211 2.308-.335 3.3-.335 1.968 0 2.285.407 2.285 1.698v1.132h-2.915c-2.794 0-3.989 1.114-3.989 3.75 0 2.511 1.312 3.944 3.589 3.944a7.47 7.47 0 0 0 3.757-1.008l.119.412a.457.457 0 0 0 .446.327h2.219c.255 0 .46-.204.46-.451v-8.066c0-3.466-1.484-4.757-5.482-4.757l-.017.008.004.01Zm38.81 0c-1.384 0-3.06.212-4.28.54a.446.446 0 0 0-.333.504l.32 1.928a.454.454 0 0 0 .19.294c.104.07.232.088.356.07 1.129-.211 2.295-.335 3.297-.335 1.967 0 2.277.407 2.277 1.698v1.132h-2.915c-2.805 0-4 1.114-4 3.75 0 2.511 1.309 3.944 3.588 3.944a7.453 7.453 0 0 0 3.753-1.008l.118.412a.458.458 0 0 0 .446.327h2.205a.46.46 0 0 0 .464-.451v-8.066c0-3.466-1.485-4.757-5.483-4.757l.005.008-.007.01ZM22.788 6.55a.512.512 0 0 0-.485-.068 25.5 25.5 0 0 1-3.188.932c-.2.053-.379.195-.437.372-.729 1.945-2.605 3.802-4.554 5.73-.073.071-.182.177-.364.177a.48.48 0 0 1-.365-.164C11.428 11.59 9.57 9.75 8.842 7.806a.653.653 0 0 0-.438-.372 26.173 26.173 0 0 1-3.187-.937.63.63 0 0 0-.182-.027.518.518 0 0 0-.305.1.466.466 0 0 0-.193.425c.164 1.615.83 3.192 2.013 4.846 1.12 1.557 2.568 2.998 3.98 4.39 2.587 2.565 5.037 4.988 5.254 7.8a.493.493 0 0 0 .495.448h3.042c.136 0 .27-.053.364-.15a.47.47 0 0 0 .137-.36c-.097-1.877-.825-3.758-2.228-5.75a18.766 18.766 0 0 0-.932-1.221.343.343 0 0 1 .026-.462l.31-.304c1.409-1.388 2.86-2.83 3.98-4.386 1.184-1.65 1.84-3.22 2.008-4.833a.489.489 0 0 0-.193-.436l.009-.014-.014-.014ZM13.772 8c.953 0 1.507-.059 1.7-.059.219 0 .455.177.455.442 0 .071-.018.124-.036.177-.128.326-.71 1.507-1.785 2.52a.504.504 0 0 1-.346.135.524.524 0 0 1-.36-.134c-1.074-1.014-1.65-2.194-1.775-2.524-.018-.053-.037-.106-.037-.186 0-.256.225-.451.46-.451.194 0 .746.053 1.7.053h.004l.019.018V8Zm77.326-1.527h-2.725a.45.45 0 0 0-.463.442V9.25c0 .248.208.45.463.45h2.732a.45.45 0 0 0 .462-.443V6.903a.454.454 0 0 0-.462-.447l-.007.021v-.005ZM27.078.902a.636.636 0 0 0-.51-.247.587.587 0 0 0-.292.07c-3.734 1.982-8.057 3.03-12.509 3.032-4.45 0-8.774-1.05-12.505-3.033a.568.568 0 0 0-.291-.07A.627.627 0 0 0 .46.9a.586.586 0 0 0 .118.831 22.648 22.648 0 0 0 6.12 3.13 22.749 22.749 0 0 0 7.068 1.133c2.417 0 4.794-.39 7.068-1.132a22.707 22.707 0 0 0 6.125-3.131.609.609 0 0 0 .119-.849v.02h-.001Z" clip-rule="evenodd"/></svg><svg viewBox="0 0 117 29" id="audi" xmlns="http://www.w3.org/2000/svg"><path d="M105.843 17.637c0-2.304-.97-4.97-3.987-8.687L94.579 0H84.447l5.768 6.279c.972 1.047 2.21 1.988 2.21 1.988-1.403-.784-3.179-1.098-4.582-1.098-3.34 0-6.736.68-9.754 2.303-3.233 1.726-5.392 4.604-5.392 8.426 0 2.93 1.35 5.18 3.074 6.907 3.88 3.77 10.941 4.135 13.529 4.135 3.827 0 9.81-.838 13.204-3.82 1.996-1.78 3.343-4.24 3.343-7.482l-.004-.001ZM117 7.745h-8.785V28.26H117V7.745ZM44.779 28.26 25.375 0H14.488l3.009 3.453L.42 28.26h9.81l2.926-4.657h18.501l2.987 4.655H44.78v.002Zm25.708-8.583V7.745h-8.514v9.159c0 2.617-.11 3.348-.27 4.028-.593 1.884-2.642 2.72-4.746 2.72-2.91 0-4.258-1.099-4.795-2.826-.164-.575-.216-1.201-.27-1.83-.054-.68 0-1.413 0-2.198V7.745H43.27v11.983c0 2.671.916 4.658 2.425 6.02 2.587 2.459 6.953 3.193 10.996 3.193 4.905 0 8.68-.681 11.373-3.246 1.403-1.309 2.427-3.035 2.427-6.018h-.003Zm26.95-1.78c0 2.145-1.456 3.768-3.288 4.658-1.509.785-3.288.994-4.852.994-1.563 0-3.395-.312-4.904-1.046-1.833-.89-3.234-2.616-3.234-4.502 0-2.249 1.778-4.028 3.88-4.919 1.293-.576 2.857-.785 4.096-.785 1.186 0 2.912.157 4.258.681 2.426.995 4.043 2.878 4.043 4.92Zm-69.199.19H16.512l5.843-9.361 5.884 9.362Z" clip-rule="evenodd"/></svg><svg viewBox="0 0 117 29" id="bitbucket" xmlns="http://www.w3.org/2000/svg"><path d="M14.932 23.2c-.17 0-.255.084-.255.084s-2.134 1.662-5.975 1.662c-3.838 0-5.97-1.663-5.97-1.663s-.17-.083-.255-.083c-.17 0-.342.084-.342.332v.082c.341 1.74.597 2.983.597 3.149C2.987 28.006 5.548 29 8.62 29s5.632-.994 5.888-2.237c0-.166.255-1.408.592-3.149v-.082c.082-.166 0-.332-.173-.332h.005Zm17.321-4.059c1.11-.58 1.536-1.409 1.536-2.653v-1.74c0-2.485-1.536-3.726-4.778-3.726h-6.485c-.255 0-.426.166-.426.415v16.237c0 .25.17.416.426.416h6.997c3.072 0 4.863-1.492 4.863-4.06v-1.74c0-1.49-.768-2.65-2.133-3.149v.001Zm6.656-3.646h-2.641c-.255 0-.428.166-.428.416v11.763c0 .248.173.416.428.416h2.65c.255 0 .428-.168.428-.416V15.91c0-.248-.173-.416-.428-.416h-.009Zm63.572-.248c-3.58 0-5.374 1.74-5.374 4.97v3.232c0 3.314 1.794 4.889 5.547 4.889 1.539 0 3.16-.248 4.526-.747.171-.082.341-.247.255-.497l-.426-1.822c0-.084-.085-.249-.17-.249-.086-.083-.255-.083-.342-.083a13.192 13.192 0 0 1-3.497.498c-1.963 0-2.304-.58-2.304-1.906v-.416h6.57c.255 0 .428-.164.428-.413v-2.32c-.086-3.48-1.707-5.137-5.205-5.137l-.008.001ZM55.64 25.355c-.683 0-1.193 0-1.703-.084v-6.385c.768-.336 1.792-.663 2.559-.663 1.024 0 1.452.416 1.452 1.327v3.723c0 1.409-.342 2.072-2.305 2.072l-.003.01Zm60.666.248c0-.083-.082-.248-.167-.332-.085-.088-.255-.088-.341-.088-.512.08-.938.168-1.28.168-.683 0-.938-.247-.938-.91v-6.218h2.559c.255 0 .425-.168.425-.415v-1.902c0-.248-.17-.415-.425-.415h-2.56v-2.98c0-.169-.087-.253-.173-.335-.085-.083-.255-.083-.341-.083l-2.644.336c-.255 0-.428.247-.428.413v2.651h-1.448c-.255 0-.429.166-.429.416v1.904c0 .247.174.416.429.416h1.448v6.625c0 2.238 1.196 3.396 3.67 3.396.683 0 1.876-.163 2.645-.416.171-.08.342-.247.255-.495l-.255-1.738-.002.002Zm-67.49 0c0-.083-.084-.248-.17-.332-.085-.088-.255-.088-.34-.088-.429.08-.939.168-1.28.168-.683 0-.938-.247-.938-.91v-6.218h2.559c.255 0 .428-.168.428-.415v-1.902c0-.248-.173-.415-.428-.415h-2.562v-2.98c0-.169-.086-.253-.171-.335-.086-.083-.255-.083-.342-.083l-2.643.336c-.255 0-.425.247-.425.413v2.651h-1.456c-.255 0-.428.166-.428.416v1.904c0 .247.172.416.428.416h1.45v6.625c0 2.238 1.193 3.396 3.668 3.396.683 0 1.876-.163 2.641-.416.173-.08.342-.247.255-.495l-.255-1.738.01.002Zm35.411-.165c0-.083-.086-.25-.17-.332-.085-.083-.255-.083-.34-.083-.769.165-1.537.248-2.305.248-1.706 0-2.133-.413-2.133-1.822v-3.396c0-1.41.512-1.824 2.133-1.824.428 0 1.366.084 2.304.248.085 0 .255 0 .34-.082.085-.082.17-.166.17-.332l.344-1.988c0-.248-.087-.414-.343-.497-1.023-.332-2.218-.416-2.9-.416-4.01 0-5.633 1.41-5.633 4.89v3.314c0 3.48 1.621 4.889 5.63 4.889.939 0 2.048-.166 2.901-.416.255-.081.342-.248.342-.495l-.343-1.906h.003Zm-58.535-.332h3.158c1.367 0 1.877-.332 1.877-1.409V22.45c0-1.078-.425-1.494-1.622-1.494h-1.11c-.256 0-.429-.168-.429-.416v-2.06c0-.249.173-.415.428-.415h.598c1.11 0 1.535-.414 1.535-1.408v-1.493c0-.58-.165-1.16-1.53-1.16h-2.913v11.102h.008Zm47.952-9.611h-2.641c-.255 0-.428.166-.428.416v8.118c-.939.497-2.305.994-3.07.994-.598 0-.856-.248-.856-.829v-8.278c0-.248-.173-.416-.428-.416h-2.65c-.254 0-.426.168-.426.416v8.616c0 2.485 1.022 3.812 3.07 3.812 1.366 0 3.328-.498 4.949-1.244l.17.664c.088.166.26.332.428.332h1.965c.255 0 .426-.168.426-.416V15.91c-.086-.168-.255-.416-.512-.416h.003ZM8.706 9.53C3.926 9.53 0 10.77 0 12.346c0 .415 1.024 6.296 1.45 8.617.171 1.076 2.988 2.568 7.253 2.568 4.266 0 6.997-1.486 7.253-2.564.419-2.318 1.448-8.199 1.448-8.614-.091-1.574-3.925-2.816-8.707-2.816l.009-.006Zm0 12.095c-1.535 0-2.73-1.16-2.73-2.651 0-1.495 1.194-2.653 2.73-2.653 1.535 0 2.73 1.158 2.73 2.653 0 1.406-1.195 2.644-2.73 2.644v.007Zm87.887 5.717-3.499-5.634 3.416-5.545c.084-.168.084-.329 0-.415a.48.48 0 0 0-.428-.248H93.18a.48.48 0 0 0-.428.248l-3.243 5.473V11.105c0-.25-.173-.416-.428-.416h-2.645c-.255 0-.428.166-.428.416v16.484c0 .248.172.416.427.416h2.645c.255 0 .428-.168.428-.416v-5.385l3.41 5.633c.086.168.255.25.342.25h2.9c.255 0 .428-.166.428-.415.084-.165.084-.248 0-.331l.004.002Zm4.011-7.04v-.416c0-1.238.596-1.733 1.876-1.733 1.451 0 1.707.663 1.707 1.742v.416h-3.583v-.009ZM8.707 17.57c.752 0 1.366.6 1.366 1.326 0 .734-.614 1.327-1.366 1.327-.752 0-1.366-.593-1.366-1.327 0-.727.612-1.326 1.366-1.326Zm48.72-2.317c-1.279 0-2.644.334-3.497.663v-4.723c0-.247-.17-.415-.428-.415h-2.645c-.255 0-.428.168-.428.415v16.405c0 .248.173.416.342.416 1.621.248 3.584.416 4.693.416 4.95 0 5.973-2.072 5.973-5.139v-3.564c0-2.98-1.366-4.474-4.01-4.474Zm-21.16-1.495c-.255 0-.428-.166-.428-.416v-2.237c0-.25.173-.416.428-.416h2.646c.256 0 .428.25.428.416v2.236c0 .247-.172.415-.428.415h-2.646v.002Zm-27.562-.584c-3.073 0-5.546-.495-5.546-1.158 0-.663 2.473-1.16 5.546-1.16 3.071 0 5.547.497 5.547 1.158 0 .663-2.476 1.161-5.547 1.161ZM42.92 6.63c-.426 0-1.11-.166-1.45-.416-.083 0-.083-.081-.083-.164l.17-.663.082-.083h.17c.429.089.853.168 1.28.168.519 0 .519-.159.519-.415 0-.16 0-.327-.77-.495-1.193-.248-1.366-.575-1.366-1.486 0-.828.257-1.406 1.794-1.406.425 0 1.023.08 1.366.164 0 0 .082.083.082.166l-.084.742-.085.084h-.171a5.82 5.82 0 0 1-.52-.033l-.16-.016a5.82 5.82 0 0 0-.518-.035c-.512 0-.512.082-.512.33 0 .336 0 .336.597.5 1.28.333 1.449.582 1.449 1.575 0 .906-.337 1.484-1.758 1.493h-.033l.001-.01Zm-3.757 0c-.51 0-1.108-.166-1.706-.416-.085 0-.085-.081-.085-.164l.17-.663.092-.083h.173c.425.089.852.168 1.279.168.51 0 .51-.159.51-.415 0-.16 0-.327-.767-.495-1.193-.248-1.366-.575-1.366-1.486 0-.828.257-1.406 1.794-1.406.426 0 1.024.08 1.366.164.084 0 .17.083.17.166l-.084.746-.084.082h-.091a5.8 5.8 0 0 1-.517-.035l-.16-.015a5.792 5.792 0 0 0-.52-.032c-.518 0-.518.08-.518.327 0 .334 0 .334.6.499 1.279.333 1.45.582 1.535 1.574 0 .907-.337 1.486-1.758 1.495h-.033v-.01ZM54.61 1.741c-.513 0-1.196.167-1.878.416l-.086-.25c0-.083-.085-.083-.17-.083h-.768c-.086 0-.171.084-.171.166v4.392c0 .082.085.165.171.165h1.024c.085 0 .17-.083.17-.165V3.314c.342-.166.853-.331 1.195-.331.255 0 .341.082.341.33v3.07c0 .08.085.164.17.164h1.02c.083 0 .174-.083.174-.165V3.146c-.091-.994-.428-1.41-1.193-1.41v.005Zm-8.193.083h-1.024c-.085 0-.17.084-.17.166v4.392c0 .082.085.165.17.165h1.03c.09 0 .173-.083.173-.165V1.987c0-.082-.084-.165-.173-.165l-.006.002ZM32.423.003H31.4c-.085 0-.17.082-.17.164v6.215c0 .082.081.165.163.165h1.03c.081 0 .167-.083.167-.165V.165c0-.082-.086-.165-.17-.165l.003.003ZM25.94.25c0-.083-.085-.083-.17-.083h-1.536c-.086 0-.171.083-.171.083L22.094 6.3v.164c0 .083.082.083.167.083h1.111c.084 0 .169-.083.169-.083l1.366-4.475s0-.081.17-.081c.084 0 .17.082.17.082l.598 2.072h-.854c-.088 0-.174.082-.174.082l-.255.823v.162s.085.083.17.083h1.449l.342 1.16c0 .082.086.082.172.082h1.11c.086 0 .086 0 .174-.084v-.168L25.939.249V.25Zm8.789 5.303c.428 0 .683-.083.853-.165v-.664h-.853c-.342 0-.427.166-.427.414 0 .33.084.413.42.416h.007v-.001Zm-4.096 0c0-.083 0-.083-.085-.083h-.171c-.17.083-.342.083-.512.083-.255 0-.341-.083-.341-.332V2.818h.938c.086 0 .17-.082.17-.165V1.99c0-.082-.084-.166-.17-.166h-.938V.664c0-.082 0-.082-.085-.082 0 0-.086-.08-.171 0L28.243.75c-.086 0-.17.088-.17.168v.99h-.512c-.082 0-.164.087-.164.168v.748c0 .084.087.168.173.168h.513v2.485c0 .828.426 1.242 1.366 1.242.255 0 .681-.084.938-.168.34-.165.34-.165.34-.247l-.085-.747-.01-.004Zm18.174 0c.428 0 .683-.083.854-.165v-.664h-.854c-.34 0-.426.166-.426.414 0 .33.084.413.419.416h.007v-.001ZM34.983 1.74a8.67 8.67 0 0 0-1.535.167c-.086 0-.17.082-.086.165l.091.663c0 .082 0 .082.09.082h.084c.428-.082.854-.082 1.194-.082.683 0 .854.166.854.58v.415h-1.03c-1.024 0-1.45.413-1.45 1.325 0 .91.512 1.408 1.28 1.408.51 0 .938-.166 1.364-.331v.165c0 .084.085.084.17.084h.769c.082 0 .173-.089.173-.168v-2.82c0-1.243-.51-1.658-1.96-1.658l-.008.005Zm13.995 0c-.512 0-1.11.083-1.537.167-.091 0-.173.082-.091.165l.082.663c0 .082 0 .082.085.082h.085c.428-.082.854-.082 1.193-.082.683 0 .856.166.856.58v.415h-1.016c-1.023 0-1.45.413-1.45 1.325 0 .91.512 1.408 1.28 1.408.512 0 .939-.166 1.367-.331l.084.165c0 .084.085.084.17.084h.769c.085 0 .17-.089.17-.168v-2.82c-.085-1.243-.597-1.658-2.047-1.658v.005ZM46.418 0h-1.025c-.085 0-.17.084-.17.166v.829c0 .08.085.159.17.159h1.03c.09 0 .173-.085.173-.168V.165c0-.082-.084-.165-.173-.165l-.005.002Z" clip-rule="evenodd"/></svg><svg viewBox="0 0 7 8" id="btn-video-img" xmlns="http://www.w3.org/2000/svg"><path d="M6 2.734a1 1 0 0 1 0 1.732L1.5 7.064A1 1 0 0 1 0 6.198V1A1 1 0 0 1 1.5.135L6 2.734Z"/></svg><svg viewBox="0 0 117 23" id="facebook" xmlns="http://www.w3.org/2000/svg"><path d="M115.316 20.076c.795 0 1.428.628 1.428 1.415 0 .796-.633 1.416-1.435 1.416a1.42 1.42 0 0 1-1.439-1.416c0-.787.645-1.415 1.439-1.415h.007Zm-91.94 2.641h-3.934l-.168-.964a9.262 9.262 0 0 1-4.457 1.122c-2.887 0-4.423-1.868-4.423-4.454 0-3.05 1.792-4.139 4.998-4.139h3.26v-.658c0-1.556-.181-2.013-2.659-2.013H11.97l.395-3.82h4.413c5.414 0 6.602 1.663 6.602 5.865v9.061h-.004Zm58.617-5.99c0 3.113-1.324 6.132-6.867 6.132-5.549 0-6.898-3.02-6.898-6.132V13.72c0-3.113 1.348-6.132 6.896-6.132 5.556 0 6.886 3.019 6.886 6.134v3.006l-.017-.001Zm15.115 0c0 3.113-1.326 6.132-6.867 6.132-5.55 0-6.9-3.02-6.9-6.132V13.72c0-3.113 1.348-6.132 6.898-6.132 5.538 0 6.867 3.019 6.867 6.134v3.006l.002-.001Zm18.201 3.572c-.637 0-1.166.531-1.166 1.19 0 .673.529 1.2 1.173 1.2.647.018 1.166-.513 1.166-1.185 0-.655-.519-1.189-1.166-1.189h-.007V20.3ZM7.245 22.687H2.527V11.615H.166v-3.82h2.359V5.504c0-3.113 1.33-4.967 5.115-4.967h3.151v3.82H8.824c-1.476 0-1.574.532-1.574 1.53l-.018 1.91h3.57l-.419 3.82h-3.15v11.072l.012-.002Zm107.793-.371h-.259v-1.58c.146-.017.273-.035.474-.035.249 0 .411.048.51.117.098.07.145.176.145.327 0 .207-.138.332-.309.384v.012c.138.025.236.149.273.382.036.244.073.34.098.39h-.273c-.036-.05-.078-.195-.109-.4-.037-.204-.146-.278-.35-.278h-.182v.679l-.018.002Zm0-.876h.187c.213 0 .394-.076.394-.27 0-.138-.102-.276-.394-.276-.084 0-.145.005-.187.012v.534Zm-99.924-3.077c0 .835.408 1.268 1.304 1.268.965 0 1.534-.304 2.237-.62v-1.67h-2.106c-.998 0-1.435.176-1.435 1.02v.002ZM60.182 11.4c-.965 0-1.658.3-2.36.619v7.04c.673.061 1.06.061 1.7.061 2.314 0 2.627-1.025 2.627-2.458v-3.368c0-1.054-.364-1.905-1.967-1.905v.01Zm14.928 0c-1.607 0-2.163.849-2.163 1.893v3.855c0 1.061.556 1.91 2.163 1.91 1.603 0 2.16-.849 2.16-1.91v-3.856c0-1.054-.565-1.904-2.168-1.904l.008.012Zm-38.357.478c-2.448-.407-3.15-.496-4.328-.496-2.116 0-2.755.448-2.755 2.194v3.29c0 1.741.637 2.192 2.755 2.192 1.179 0 1.88-.088 4.328-.495v3.722c-2.144.468-3.54.59-4.721.59-5.067 0-7.082-2.582-7.082-6.314v-2.67c0-3.74 2.015-6.327 7.082-6.327 1.18 0 2.578.123 4.721.592v3.722Zm14.773 4.687H42.87v.3c0 1.742.638 2.194 2.754 2.194 1.904 0 3.06-.089 5.505-.496v3.722c-2.355.468-3.583.59-5.896.59-5.064 0-7.068-2.582-7.068-6.314v-3.06c0-3.267 1.494-5.943 6.685-5.943 5.2 0 6.685 2.644 6.685 5.943v3.06l-.009.004ZM90.223 11.4c-1.603 0-2.159.849-2.159 1.898v3.86c0 1.062.556 1.911 2.159 1.911 1.603 0 2.168-.849 2.168-1.91v-3.863c0-1.056-.565-1.907-2.168-1.907v.01Zm22.399 11.284h-5.113l-4.328-7.004v7.004h-4.718V1.678l4.718-.76V14.44l4.326-6.65h5.101l-4.727 7.251 4.723 7.64.018.004ZM44.837 11.012c-1.603 0-1.967.849-1.967 1.91v.589h3.935v-.594c0-1.044-.365-1.9-1.968-1.9v-.005Zm22.034 5.624c0 3.609-1.075 6.244-7.523 6.244-2.325 0-3.69-.202-6.259-.584V1.675l4.718-.76v7.21c1.02-.368 2.34-.553 3.543-.553 4.717 0 5.5 2.051 5.5 5.346v3.733l.02-.015Z" clip-rule="evenodd"/></svg><svg viewBox="0 0 9 17" id="fb" xmlns="http://www.w3.org/2000/svg"><path d="M2.25 9.938V17h3.262V9.937h2.433l.508-3.246H5.512V5.543c0-1.719.57-2.375 2.047-2.375a9.7 9.7 0 0 1 1.039.039V.262C8.195.132 7.21 0 6.645 0 3.637 0 2.25 1.676 2.25 5.293v1.398H.395v3.247Zm0 0"/></svg><svg viewBox="0 0 17 13" id="mail" xmlns="http://www.w3.org/2000/svg"><path d="M2.125 2.844c-.293 0-.531.183-.531.406v.563L7.32 7.405c.688.434 1.676.434 2.364 0l5.722-3.593V3.25c0-.223-.238-.406-.531-.406Zm-.531 2.543V9.75c0 .223.238.406.531.406h12.75c.293 0 .531-.183.531-.406V5.387l-4.715 2.96c-1.273.801-3.109.801-4.382 0ZM0 3.25c0-.895.953-1.625 2.125-1.625h12.75c1.172 0 2.125.73 2.125 1.625v6.5c0 .895-.953 1.625-2.125 1.625H2.125C.953 11.375 0 10.645 0 9.75Zm0 0"/></svg><svg viewBox="0 0 15 12" id="telegram" xmlns="http://www.w3.org/2000/svg"><path d="M14.594.133c.297.164.449.445.394.73l-1.875 9.75c-.043.227-.215.426-.468.54a1.143 1.143 0 0 1-.82.034L8.32 10.024l-2.008 1.739c-.257.226-.671.3-1.03.187-.36-.11-.595-.39-.595-.699V9.29c0-.095.043-.18.125-.25L9.72 4.753c.172-.149.168-.375-.008-.516a.551.551 0 0 0-.645-.015l-5.96 4.234L.52 7.422C.207 7.297.008 7.047 0 6.77c-.008-.274.172-.532.473-.672l13.125-6c.312-.141.699-.13.996.035Zm0 0"/></svg><svg viewBox="0 0 10 11" id="top-video-img" xmlns="http://www.w3.org/2000/svg"><path d="M9.23 4.177a1.523 1.523 0 0 1 0 2.646l-6.922 3.97C1.282 11.381 0 10.646 0 9.47V1.53C0 .354 1.282-.38 2.308.207l6.923 3.97Z"/></svg><svg viewBox="0 0 17 14" id="twitter" xmlns="http://www.w3.org/2000/svg"><path d="M15.254 4.148c.008.122.008.25.008.372 0 3.793-3.504 8.164-9.914 8.164-1.973 0-3.809-.47-5.348-1.286.277.028.55.036.84.036 1.629 0 3.129-.457 4.328-1.227-1.531-.027-2.816-.852-3.258-1.992.215.027.43.047.656.047.313 0 .625-.035.918-.102C1.887 7.898.691 6.738.691 5.344v-.035a4.032 4.032 0 0 0 1.575.363C1.324 5.16.71 4.277.71 3.285c0-.535.172-1.023.473-1.45 1.718 1.743 4.296 2.88 7.187 3a2.63 2.63 0 0 1-.086-.655c0-1.578 1.555-2.867 3.48-2.867 1.005 0 1.91.347 2.547.906a7.778 7.778 0 0 0 2.211-.692c-.257.664-.808 1.223-1.527 1.578A8.356 8.356 0 0 0 17 2.665a7.102 7.102 0 0 1-1.746 1.483Zm0 0"/></svg></svg>