<svg xmlns="http://www.w3.org/2000/svg" width="17" height="14"><path d="M15.254 4.148c.008.122.008.25.008.372 0 3.793-3.504 8.164-9.914 8.164-1.973 0-3.809-.47-5.348-1.286.277.028.55.036.84.036 1.629 0 3.129-.457 4.328-1.227-1.531-.027-2.816-.852-3.258-1.992.215.027.43.047.656.047.313 0 .625-.035.918-.102C1.887 7.898.691 6.738.691 5.344v-.035a4.032 4.032 0 0 0 1.575.363C1.324 5.16.71 4.277.71 3.285c0-.535.172-1.023.473-1.45 1.718 1.743 4.296 2.88 7.187 3a2.63 2.63 0 0 1-.086-.655c0-1.578 1.555-2.867 3.48-2.867 1.005 0 1.91.347 2.547.906a7.778 7.778 0 0 0 2.211-.692c-.257.664-.808 1.223-1.527 1.578A8.356 8.356 0 0 0 17 2.665a7.102 7.102 0 0 1-1.746 1.483Zm0 0" /></svg>